<?xml version="1.0" encoding="UTF-8" standalone="no"?>
<!-- Created with Inkscape (http://www.inkscape.org/) -->

<svg
   xmlns:dc="http://purl.org/dc/elements/1.1/"
   xmlns:cc="http://creativecommons.org/ns#"
   xmlns:rdf="http://www.w3.org/1999/02/22-rdf-syntax-ns#"
   xmlns:svg="http://www.w3.org/2000/svg"
   xmlns="http://www.w3.org/2000/svg"
   xmlns:sodipodi="http://sodipodi.sourceforge.net/DTD/sodipodi-0.dtd"
   xmlns:inkscape="http://www.inkscape.org/namespaces/inkscape"
   width="10.217511mm"
   height="10.217512mm"
   viewBox="0 0 10.217511 10.217512"
   version="1.1"
   id="svg1000"
   inkscape:version="0.92.3 (2405546, 2018-03-11)"
   sodipodi:docname="INVERTER-cs.svg">
  <defs
     id="defs994" />
  <sodipodi:namedview
     id="base"
     pagecolor="#ffffff"
     bordercolor="#666666"
     borderopacity="1.0"
     inkscape:pageopacity="0.0"
     inkscape:pageshadow="2"
     inkscape:zoom="4.9695422"
     inkscape:cx="49.054368"
     inkscape:cy="55.488569"
     inkscape:document-units="mm"
     inkscape:current-layer="layer1"
     showgrid="false"
     fit-margin-top="0"
     fit-margin-left="0"
     fit-margin-right="0"
     fit-margin-bottom="0"
     inkscape:window-width="1873"
     inkscape:window-height="1056"
     inkscape:window-x="47"
     inkscape:window-y="24"
     inkscape:window-maximized="1"
     inkscape:snap-page="false" />
  <metadata
     id="metadata997">
    <rdf:RDF>
      <cc:Work
         rdf:about="">
        <dc:format>image/svg+xml</dc:format>
        <dc:type
           rdf:resource="http://purl.org/dc/dcmitype/StillImage" />
        <dc:title></dc:title>
      </cc:Work>
    </rdf:RDF>
  </metadata>
  <g
     inkscape:label="Capa 1"
     inkscape:groupmode="layer"
     id="layer1"
     transform="translate(-66.999666,-188.46733)">
    <g
       id="g822"
       transform="matrix(0.36491113,0,0,0.36491113,42.550742,126.18253)">
      <path
         d="m 94.315973,182.53261 a 13.489107,13.489101 0 0 1 -11.1568,15.46735 13.489107,13.489101 0 0 1 -15.473447,-11.14835 13.489107,13.489101 0 0 1 11.139922,-15.47952 13.489107,13.489101 0 0 1 15.485598,11.13147"
         sodipodi:open="true"
         sodipodi:end="6.120765"
         sodipodi:start="6.1229466"
         sodipodi:ry="13.489101"
         sodipodi:rx="13.489107"
         sodipodi:cy="184.68484"
         sodipodi:cx="80.999672"
         sodipodi:type="arc"
         id="path1608"
         style="opacity:1;fill:#00e7ff;fill-opacity:1;fill-rule:nonzero;stroke:#000000;stroke-width:1.0183562;stroke-linecap:round;stroke-linejoin:miter;stroke-miterlimit:4;stroke-dasharray:none;stroke-dashoffset:0;stroke-opacity:1" />
      <path
         style="opacity:1;fill:#ffffff;fill-opacity:1;fill-rule:nonzero;stroke:#000000;stroke-width:0.39890802;stroke-linecap:round;stroke-linejoin:miter;stroke-miterlimit:4;stroke-dasharray:none;stroke-dashoffset:0;stroke-opacity:1"
         id="path1610"
         sodipodi:type="arc"
         sodipodi:cx="80.999672"
         sodipodi:cy="184.68484"
         sodipodi:rx="2.8002486"
         sodipodi:ry="2.8002486"
         sodipodi:start="6.1229466"
         sodipodi:end="6.120765"
         sodipodi:open="true"
         d="m 83.764047,184.23805 a 2.8002486,2.8002486 0 0 1 -2.316077,3.21093 2.8002486,2.8002486 0 0 1 -3.212184,-2.31433 2.8002486,2.8002486 0 0 1 2.312573,-3.21345 2.8002486,2.8002486 0 0 1 3.214707,2.31082" />
      <path
         sodipodi:nodetypes="czzzc"
         inkscape:connector-curvature="0"
         id="path1612"
         d="m 80.804187,181.8953 c 0.270585,-1.02019 0.80421,-2.11357 0.81172,-3.06096 0.0087,-0.94717 -0.4928,-1.55907 -0.768392,-2.39698 -0.275577,-0.83803 -0.892277,-1.72514 -0.885088,-2.63083 0.0077,-0.90557 0.61717,-1.66136 0.92576,-2.49189"
         style="fill:none;fill-rule:evenodd;stroke:#000000;stroke-width:0.14640479px;stroke-linecap:butt;stroke-linejoin:miter;stroke-opacity:1" />
      <path
         style="fill:none;fill-rule:evenodd;stroke:#000000;stroke-width:0.14640479px;stroke-linecap:butt;stroke-linejoin:miter;stroke-opacity:1"
         d="m 80.804187,197.90752 c 0.270585,-1.02037 0.80421,-2.11373 0.81172,-3.06089 0.0087,-0.94742 -0.4928,-1.55916 -0.768392,-2.39719 -0.275577,-0.83811 -0.892277,-1.72518 -0.885088,-2.63084 0.0077,-0.90556 0.61717,-1.66119 0.92576,-2.49197"
         id="path1614"
         inkscape:connector-curvature="0"
         sodipodi:nodetypes="czzzc" />
      <path
         inkscape:connector-curvature="0"
         id="path1696"
         d="m 80.366832,171.62141 c -3.590658,0.18768 -7.072436,1.90613 -9.369291,4.67832 -2.747325,3.23606 -3.767293,7.85831 -2.564517,11.93779 0.665974,2.32819 1.974423,4.47206 3.780772,6.0906 1.622866,1.53421 3.697126,2.55736 5.855885,3.08956 0.899634,0.19966 1.83619,0.35572 2.753038,0.31141 0.274026,-0.56793 0.435599,-1.23312 0.630865,-1.85105 0.270375,-0.83049 0.183167,-1.74086 -0.210223,-2.51751 -0.408801,-1.0637 -0.963741,-2.0811 -1.225948,-3.19482 -0.17458,-0.88628 0.411526,-1.65734 0.679195,-2.45221 -0.140582,-0.25202 -0.529763,-0.18247 -0.767001,-0.32488 -1.313118,-0.52159 -2.160981,-2.09403 -1.725536,-3.47467 0.315228,-1.15846 1.383156,-2.04493 2.58116,-2.14223 0.250344,-0.31246 0.275965,-0.78789 0.438747,-1.16345 0.297491,-0.89548 0.604457,-1.90353 0.19295,-2.81749 -0.443994,-1.18814 -1.030595,-2.32298 -1.393226,-3.53832 -0.20574,-0.86568 0.318836,-1.64786 0.634089,-2.40333 0.03503,-0.17205 -0.149626,-0.24647 -0.290959,-0.22772 z"
         style="opacity:1;fill:#ff8500;fill-opacity:1;fill-rule:nonzero;stroke:#000000;stroke-width:0.11733565;stroke-linecap:round;stroke-linejoin:miter;stroke-miterlimit:4;stroke-dasharray:none;stroke-dashoffset:0;stroke-opacity:1" />
    </g>
  </g>
</svg>
