<?xml version="1.0" encoding="UTF-8" standalone="no"?>
<svg
   xmlns:dc="http://purl.org/dc/elements/1.1/"
   xmlns:cc="http://creativecommons.org/ns#"
   xmlns:rdf="http://www.w3.org/1999/02/22-rdf-syntax-ns#"
   xmlns:svg="http://www.w3.org/2000/svg"
   xmlns="http://www.w3.org/2000/svg"
   xmlns:sodipodi="http://sodipodi.sourceforge.net/DTD/sodipodi-0.dtd"
   xmlns:inkscape="http://www.inkscape.org/namespaces/inkscape"
   height="192.718"
   width="383.697"
   version="1"
   id="svg72"
   sodipodi:docname="OR-8-1.svg"
   inkscape:version="0.92.3 (2405546, 2018-03-11)">
  <metadata
     id="metadata78">
    <rdf:RDF>
      <cc:Work
         rdf:about="">
        <dc:format>image/svg+xml</dc:format>
        <dc:type
           rdf:resource="http://purl.org/dc/dcmitype/StillImage" />
        <dc:title></dc:title>
      </cc:Work>
    </rdf:RDF>
  </metadata>
  <defs
     id="defs76" />
  <sodipodi:namedview
     pagecolor="#ffffff"
     bordercolor="#666666"
     borderopacity="1"
     objecttolerance="10"
     gridtolerance="10"
     guidetolerance="10"
     inkscape:pageopacity="0"
     inkscape:pageshadow="2"
     inkscape:window-width="1280"
     inkscape:window-height="776"
     id="namedview74"
     showgrid="false"
     inkscape:zoom="2.9213669"
     inkscape:cx="191.8485"
     inkscape:cy="96.359001"
     inkscape:window-x="0"
     inkscape:window-y="1"
     inkscape:window-maximized="1"
     inkscape:current-layer="svg72" />
  <path
     d="M175.56 188.718H84.527s30.345-42.538 31.086-94.03c.743-51.49-31.821-90.294-31.821-90.294L176.109 4c46.445 1.948 103.899 53.44 123.047 93.678-32.601 67.503-92.158 89.79-123.596 91.04z"
     fill="none"
     stroke="#000"
     stroke-width="8"
     stroke-linecap="round"
     stroke-linejoin="round"
     id="path64" />
  <path
     d="M4.057 47.292h99.605M4.883 145.168h100.981M298.57 98.89h81.07"
     fill="none"
     stroke="#000"
     stroke-width="8"
     stroke-linecap="round"
     id="path66" />
  <text
     style="line-height:125%"
     font-weight="400"
     font-size="66.317"
     y="121.28"
     x="131.572"
     font-family="sans-serif"
     letter-spacing="0"
     word-spacing="0"
     fill="#00f"
     id="text70">
    <tspan
       font-weight="700"
       y="121.28"
       x="131.572"
       id="tspan68">OR</tspan>
  </text>
  <flowRoot
     xml:space="preserve"
     id="flowRoot80"
     style="font-style:normal;font-weight:normal;font-size:40px;line-height:125%;font-family:sans-serif;letter-spacing:0px;word-spacing:0px;fill:#000000;fill-opacity:1;stroke:none;stroke-width:1px;stroke-linecap:butt;stroke-linejoin:miter;stroke-opacity:1"
     transform="matrix(5.4328564,0,0,4.9713627,-627.15122,-160.3932)"><flowRegion
       id="flowRegion82"><rect
         id="rect84"
         width="92.080185"
         height="127.33765"
         x="135.21068"
         y="31.149801" /></flowRegion><flowPara
       id="flowPara86">8</flowPara></flowRoot>  <path
     style="fill:#a0a0a0;stroke:none;stroke-width:0.34230551px;stroke-linecap:butt;stroke-linejoin:miter;stroke-opacity:1"
     d="m 181.98098,84.0514 c -1.77526,-3.667205 -5.61108,-7.567595 -9.2243,-9.379603 -5.83023,-2.923813 -15.28191,-3.577808 -22.16866,-1.533925 -0.66306,0.196784 -0.85695,0.01447 -1.44595,-1.3596 -2.67202,-6.233576 -2.12149,-15.923708 1.22956,-21.641833 2.17059,-3.703839 6.54736,-7.275744 11.19503,-9.136336 5.70122,-2.282353 16.31153,-3.09728 23.29318,-1.789037 10.83785,2.030831 18.1494,8.165125 20.21638,16.961268 1.03612,4.409304 0.56939,11.363107 -1.03118,15.36332 l -0.56403,1.40965 h -4.75511 -4.75511 v 4.743906 4.743903 l -2.65287,1.040027 c -2.17351,0.852101 -7.16892,2.137468 -8.30699,2.137468 -0.15133,0 -0.61481,-0.701644 -1.02995,-1.559208 z"
     id="path145"
     inkscape:connector-curvature="0" />
  <path
     style="fill:#a0a0a0;stroke:none;stroke-width:0.34230551px;stroke-linecap:butt;stroke-linejoin:miter;stroke-opacity:1"
     d="m 170.69401,157.28039 c -14.52732,-1.83707 -23.79077,-9.36817 -26.1988,-21.29938 -1.11359,-5.51755 -0.0538,-17.19828 1.51569,-16.70643 0.30282,0.0949 1.52318,0.57938 2.71193,1.07664 3.23132,1.35167 6.2696,1.87353 10.94626,1.88013 5.43116,0.008 8.63192,-0.65086 12.69799,-2.61251 5.91931,-2.85575 10.03586,-8.12405 11.53497,-14.76229 0.41525,-1.83878 0.70256,-2.47275 1.12036,-2.47211 0.9256,0.001 6.83442,1.66199 7.9302,2.22864 l 1.01818,0.52652 v 8.20654 8.20655 h 6.31632 6.31632 l 0.10191,-2.13941 0.10191,-2.13941 0.91533,2.75936 c 2.54118,7.66065 1.71474,17.3812 -2.01907,23.74816 -3.72427,6.35071 -10.255,10.7501 -18.89931,12.73143 -2.87982,0.66008 -13.10697,1.14735 -16.11019,0.76757 z"
     id="path147"
     inkscape:connector-curvature="0" />
  <path
     style="fill:#a0a0a0;stroke:none;stroke-width:0.34230551px;stroke-linecap:butt;stroke-linejoin:miter;stroke-opacity:1"
     d="m 155.95728,112.46721 c -0.85688,-0.26408 -2.15502,-0.99626 -2.88474,-1.62706 l -1.32678,-1.1469 2.2537,-1.60821 c 4.16363,-2.9711 9.96114,-5.20961 15.29284,-5.90481 l 1.8502,-0.24124 -0.20141,1.24109 c -0.65386,4.02929 -4.08847,8.27584 -7.51699,9.294 -2.14984,0.63843 -5.38263,0.63546 -7.46682,-0.007 z"
     id="path149"
     inkscape:connector-curvature="0" />
  <path
     style="fill:#a0a0a0;stroke:none;stroke-width:0.34230551px;stroke-linecap:butt;stroke-linejoin:miter;stroke-opacity:1"
     d="m 164.53252,84.462038 c -1.41201,-0.423271 -3.54129,-1.211292 -4.73172,-1.751158 -1.76102,-0.798632 -2.05652,-1.041957 -1.58551,-1.305549 0.90091,-0.504174 4.59188,0.03948 6.49881,0.957232 2.08235,1.002173 4.10376,2.91658 3.04878,2.887398 -0.36469,-0.01009 -1.81835,-0.364653 -3.23036,-0.787923 z"
     id="path151"
     inkscape:connector-curvature="0" />
</svg>
