<?xml version="1.0" encoding="UTF-8" standalone="no"?>
<svg
   xmlns:dc="http://purl.org/dc/elements/1.1/"
   xmlns:cc="http://creativecommons.org/ns#"
   xmlns:rdf="http://www.w3.org/1999/02/22-rdf-syntax-ns#"
   xmlns:svg="http://www.w3.org/2000/svg"
   xmlns="http://www.w3.org/2000/svg"
   xmlns:sodipodi="http://sodipodi.sourceforge.net/DTD/sodipodi-0.dtd"
   xmlns:inkscape="http://www.inkscape.org/namespaces/inkscape"
   width="177.21466"
   height="156.39221"
   viewBox="0 0 166.13943 146.61829"
   id="svg2"
   version="1.1"
   inkscape:version="0.92.3 (2405546, 2018-03-11)"
   sodipodi:docname="Nota Re.svg">
  <metadata
     id="metadata20">
    <rdf:RDF>
      <cc:Work
         rdf:about="">
        <dc:format>image/svg+xml</dc:format>
        <dc:type
           rdf:resource="http://purl.org/dc/dcmitype/StillImage" />
        <dc:title></dc:title>
      </cc:Work>
    </rdf:RDF>
  </metadata>
  <defs
     id="defs18" />
  <sodipodi:namedview
     pagecolor="#ffffff"
     bordercolor="#666666"
     borderopacity="1"
     objecttolerance="10"
     gridtolerance="10"
     guidetolerance="10"
     inkscape:pageopacity="0"
     inkscape:pageshadow="2"
     inkscape:window-width="1274"
     inkscape:window-height="772"
     id="namedview16"
     showgrid="false"
     fit-margin-top="0"
     fit-margin-left="0"
     fit-margin-right="0"
     fit-margin-bottom="0"
     inkscape:zoom="2.6306498"
     inkscape:cx="159.2304"
     inkscape:cy="69.527956"
     inkscape:window-x="0"
     inkscape:window-y="1"
     inkscape:window-maximized="0"
     inkscape:current-layer="svg2" />
  <path
     d="M 85.266141,144.11127 C 82.69195,139.68254 78.701368,135.34616 71.139439,128.762 67.043068,125.19583 64.551158,123.21528 50.363725,112.25544 39.244163,103.66323 33.696137,98.896539 27.266538,92.408662 20.840858,85.920785 17.063812,80.753276 13.823544,74.015865 11.754788,69.712882 10.332519,65.567085 9.4470292,61.260172 8.3244942,55.788114 8.1716882,53.935277 8.1775652,45.877499 8.1853652,35.304735 8.5341122,33.54621 12.005546,26.492461 14.585614,21.25422 16.544663,18.49559 20.625363,14.351764 24.588518,10.329755 27.16075,8.5024552 32.724448,5.7516952 c 6.1808,-3.05728 10.651349,-3.85893 19.860838,-3.56224 7.156407,0.23185 9.775655,0.94312 15.449061,4.20867 8.929344,5.1380388 15.8585,13.3863948 17.776409,21.1612398 0.313448,1.271247 0.636691,2.312608 0.718971,2.312608 0.08228,0 0.805169,-1.487378 1.60642,-3.304848 C 90.863143,20.38773 93.396193,16.61721 97.420079,12.738634 109.74054,0.85926513 129.1645,-1.2883048 144.8702,7.4886052 c 6.41392,3.5838598 11.63283,8.8024448 15.67631,15.6754298 3.18345,5.409184 4.81142,12.594576 5.08961,22.46393 0.4016,14.298086 -2.21373,24.206736 -9.17423,34.765746 -2.76226,4.190988 -4.80555,6.729551 -8.63745,10.72995 -6.18275,6.458405 -11.75821,11.205449 -24.92106,21.216269 -8.30636,6.31694 -13.22945,10.37825 -20.35451,16.79932 -5.710628,5.14393 -14.557692,14.09964 -15.409879,15.59684 -0.372219,0.65429 -0.709175,1.18872 -0.748356,1.18872 -0.03918,0 -0.544616,-0.8154 -1.124494,-1.81354 z"
     id="path8"
     inkscape:connector-curvature="0"
     style="fill:#ff0000;stroke:#000000;stroke-width:2.81251168;stroke-miterlimit:4;stroke-dasharray:none"
     inkscape:export-filename="/home/obijuan/develop/FPGAwars/Icestudio-block-icons/Hearts/png/Heart_1Hz.png"
     inkscape:export-xdpi="90"
     inkscape:export-ydpi="90" />
  <text
     y="136.18301"
     x="124.11331"
     style="font-weight:400;font-size:53.91407013px;line-height:0%;font-family:sans-serif;letter-spacing:0;word-spacing:0;fill:#0000ff"
     font-weight="400"
     font-size="27.48"
     letter-spacing="0"
     word-spacing="0"
     id="text4204"
     transform="scale(0.99852717,1.001475)"
     inkscape:export-filename="/home/obijuan/develop/FPGAwars/Icestudio-block-icons/Hearts/png/Heart_1Hz.png"
     inkscape:export-xdpi="90"
     inkscape:export-ydpi="90">
    <tspan
       style="font-weight:700;font-size:30.808321px;-inkscape-font-specification:'sans-serif Bold';fill:#0000ff"
       y="136.18301"
       x="124.11331"
       font-weight="700"
       font-size="15.703"
       id="tspan4206">Hz</tspan>
  </text>
  <g
     inkscape:groupmode="layer"
     id="layer1"
     inkscape:label="Layer 1" />
  <flowRoot
     xml:space="preserve"
     id="flowRoot8781"
     style="font-style:normal;font-weight:normal;font-size:40px;line-height:125%;font-family:sans-serif;letter-spacing:0px;word-spacing:0px;fill:#000000;fill-opacity:1;stroke:none;stroke-width:1px;stroke-linecap:butt;stroke-linejoin:miter;stroke-opacity:1"
     transform="scale(0.93750383)"><flowRegion
       id="flowRegion8783"><rect
         id="rect8785"
         width="66.143356"
         height="41.814762"
         x="58.160534"
         y="48.053959" /></flowRegion><flowPara
       id="flowPara8787">RER</flowPara></flowRoot>  <text
     xml:space="preserve"
     style="font-style:normal;font-weight:normal;font-size:80.38776398px;line-height:125%;font-family:sans-serif;letter-spacing:0px;word-spacing:0px;fill:#000000;fill-opacity:1;stroke:none;stroke-width:2.00969434px;stroke-linecap:butt;stroke-linejoin:miter;stroke-opacity:1"
     x="31.367348"
     y="98.474678"
     id="text8791"
     transform="scale(1.0106369,0.98947502)"><tspan
       sodipodi:role="line"
       id="tspan8789"
       x="31.367348"
       y="98.474678"
       style="stroke-width:2.00969434px">RE</tspan></text>
</svg>
