<?xml version="1.0" encoding="UTF-8" standalone="no"?>
<!-- Generator: Adobe Illustrator 18.1.1, SVG Export Plug-In . SVG Version: 6.00 Build 0)  -->

<svg
   xmlns:dc="http://purl.org/dc/elements/1.1/"
   xmlns:cc="http://creativecommons.org/ns#"
   xmlns:rdf="http://www.w3.org/1999/02/22-rdf-syntax-ns#"
   xmlns:svg="http://www.w3.org/2000/svg"
   xmlns="http://www.w3.org/2000/svg"
   xmlns:sodipodi="http://sodipodi.sourceforge.net/DTD/sodipodi-0.dtd"
   xmlns:inkscape="http://www.inkscape.org/namespaces/inkscape"
   version="1.1"
   id="Capa_1"
   x="0px"
   y="0px"
   viewBox="0 0 572.35502 559.38896"
   xml:space="preserve"
   sodipodi:docname="Alarma.svg"
   width="572.35504"
   height="559.38898"
   inkscape:version="0.92.4 (5da689c313, 2019-01-14)"><metadata
   id="metadata47"><rdf:RDF><cc:Work
       rdf:about=""><dc:format>image/svg+xml</dc:format><dc:type
         rdf:resource="http://purl.org/dc/dcmitype/StillImage" /><dc:title></dc:title></cc:Work></rdf:RDF></metadata><defs
   id="defs45">
	

		
	</defs><sodipodi:namedview
   pagecolor="#ffffff"
   bordercolor="#666666"
   borderopacity="1"
   objecttolerance="10"
   gridtolerance="10"
   guidetolerance="10"
   inkscape:pageopacity="0"
   inkscape:pageshadow="2"
   inkscape:window-width="1360"
   inkscape:window-height="715"
   id="namedview43"
   showgrid="false"
   inkscape:zoom="0.38562153"
   inkscape:cx="192.82174"
   inkscape:cy="184.46819"
   inkscape:window-x="-8"
   inkscape:window-y="-8"
   inkscape:window-maximized="1"
   inkscape:current-layer="Capa_1" />
<g
   id="g6"
   style="stroke-width:1.47495914"
   transform="matrix(0.6737935,0,0,0.68220234,72.217216,85.203277)">
			<path
   d="M 570.107,500.254 C 505.07,470.883 502.596,344.813 502.548,341.632 V 257.054 C 502.548,175.652 452.806,105.655 382.121,75.851 381.969,34 347.883,0 306.001,0 264.118,0 230.033,34.002 229.88,75.849 159.198,105.653 109.455,175.65 109.455,257.052 v 84.578 c -0.046,3.181 -2.522,129.251 -67.561,158.622 -7.409,3.347 -11.481,11.412 -9.768,19.36 1.711,7.949 8.74,13.626 16.871,13.626 h 164.88 c 3.38,18.594 12.172,35.892 25.619,49.903 17.86,18.608 41.479,28.856 66.502,28.856 25.025,0 48.644,-10.248 66.502,-28.856 13.449,-14.012 22.241,-31.311 25.619,-49.903 h 164.88 c 8.131,0 15.159,-5.676 16.872,-13.626 1.715,-7.948 -2.355,-16.012 -9.764,-19.358 z m -85.673,-60.395 c 6.837,20.728 16.518,41.544 30.246,58.866 H 97.32 c 13.726,-17.32 23.407,-38.135 30.244,-58.866 z M 306.001,34.515 c 18.945,0 34.963,12.73 39.975,30.082 -12.912,-2.678 -26.282,-4.09 -39.975,-4.09 -13.693,0 -27.063,1.411 -39.975,4.09 5.013,-17.351 21.031,-30.082 39.975,-30.082 z M 143.97,341.736 v -84.685 c 0,-89.343 72.686,-162.029 162.031,-162.029 89.345,0 162.031,72.686 162.031,162.029 v 84.826 c 0.023,2.596 0.427,29.879 7.303,63.465 H 136.663 c 6.88,-33.618 7.286,-60.949 7.307,-63.606 z m 162.031,235.749 c -26.341,0 -49.33,-18.992 -56.709,-44.246 h 113.416 c -7.379,25.254 -30.364,44.246 -56.707,44.246 z"
   id="path2"
   inkscape:connector-curvature="0"
   style="fill:#ff0000;stroke-width:1.47495914" />
			
		</g>
<g
   id="g12"
   transform="translate(-23.711811,-41.864323)">
</g>
<g
   id="g14"
   transform="translate(-23.711811,-41.864323)">
</g>
<g
   id="g16"
   transform="translate(-23.711811,-41.864323)">
</g>
<g
   id="g18"
   transform="translate(-23.711811,-41.864323)">
</g>
<g
   id="g20"
   transform="translate(-23.711811,-41.864323)">
</g>
<g
   id="g22"
   transform="translate(-23.711811,-41.864323)">
</g>
<g
   id="g24"
   transform="translate(-23.711811,-41.864323)">
</g>
<g
   id="g26"
   transform="translate(-23.711811,-41.864323)">
</g>
<g
   id="g28"
   transform="translate(-23.711811,-41.864323)">
</g>
<g
   id="g30"
   transform="translate(-23.711811,-41.864323)">
</g>
<g
   id="g32"
   transform="translate(-23.711811,-41.864323)">
</g>
<g
   id="g34"
   transform="translate(-23.711811,-41.864323)">
</g>
<g
   id="g36"
   transform="translate(-23.711811,-41.864323)">
</g>
<g
   id="g38"
   transform="translate(-23.711811,-41.864323)">
</g>
<g
   id="g40"
   transform="translate(-23.711811,-41.864323)">
</g>
<rect
   style="fill:none;fill-opacity:1;stroke:#ff0000;stroke-width:20;stroke-miterlimit:4;stroke-dasharray:none;stroke-opacity:1"
   id="rect56"
   width="552.35504"
   height="539.38898"
   x="10"
   y="10" /></svg>