<?xml version="1.0" encoding="UTF-8" standalone="no"?>
<!-- Generator: Adobe Illustrator 18.0.0, SVG Export Plug-In . SVG Version: 6.00 Build 0)  -->

<svg
   xmlns:dc="http://purl.org/dc/elements/1.1/"
   xmlns:cc="http://creativecommons.org/ns#"
   xmlns:rdf="http://www.w3.org/1999/02/22-rdf-syntax-ns#"
   xmlns:svg="http://www.w3.org/2000/svg"
   xmlns="http://www.w3.org/2000/svg"
   xmlns:sodipodi="http://sodipodi.sourceforge.net/DTD/sodipodi-0.dtd"
   xmlns:inkscape="http://www.inkscape.org/namespaces/inkscape"
   version="1.1"
   id="Capa_1"
   x="0px"
   y="0px"
   viewBox="0 0 733.61799 447.16599"
   xml:space="preserve"
   sodipodi:docname="problemaN.svg"
   inkscape:version="0.92.4 (5da689c313, 2019-01-14)"
   width="733.61798"
   height="447.16599"><metadata
   id="metadata42"><rdf:RDF><cc:Work
       rdf:about=""><dc:format>image/svg+xml</dc:format><dc:type
         rdf:resource="http://purl.org/dc/dcmitype/StillImage" /><dc:title></dc:title></cc:Work></rdf:RDF></metadata><defs
   id="defs40">
	
	
	
	
</defs><sodipodi:namedview
   pagecolor="#ffffff"
   bordercolor="#666666"
   borderopacity="1"
   objecttolerance="10"
   gridtolerance="10"
   guidetolerance="10"
   inkscape:pageopacity="0"
   inkscape:pageshadow="2"
   inkscape:window-width="2560"
   inkscape:window-height="1411"
   id="namedview38"
   showgrid="false"
   inkscape:zoom="1.456403"
   inkscape:cx="249.16432"
   inkscape:cy="195.13729"
   inkscape:window-x="-9"
   inkscape:window-y="-9"
   inkscape:window-maximized="1"
   inkscape:current-layer="Capa_1"
   fit-margin-top="0"
   fit-margin-left="0"
   fit-margin-right="0"
   fit-margin-bottom="0" />
<g
   id="g3754"
   transform="translate(-1.017509e-4,-5.899)"><path
     id="XMLID_14_"
     d="m 160.417,223.248 -43.11,-4.605 c -6.823,-0.729 -12.921,-3.524 -17.75,-7.69 -7.446,1.699 -14.689,-2.835 -16.627,-9.974 l -16.575,-61.065 0.009,291.841 c 0,11.77 9.54,21.31 21.31,21.31 11.77,0 21.31,-9.54 21.31,-21.31 0,-4.527 0,-138.803 0,-165.705 0,-2.556 2.072,-4.628 4.627,-4.628 2.527,0 4.574,2.047 4.574,4.574 0,27.171 0,163.23 0,165.759 0,11.77 9.54,21.31 21.31,21.31 11.77,0 21.31,-9.54 21.31,-21.31 z"
     inkscape:connector-curvature="0" /><path
     id="XMLID_1080_"
     d="m 124.211,154.01 11.157,1.192 -11.692,-43.075 -46.902,12.73 13.57,49.996 c 5.093,-13.526 18.828,-22.449 33.867,-20.843 z"
     inkscape:connector-curvature="0" /><path
     id="XMLID_1081_"
     d="m 203.091,133.053 c 0,0 0,-0.001 0,-0.002 C 202.974,109.996 184.124,91.24 161.068,91.24 L 80.302,91.58 46.723,78.852 76.826,40.755 c -0.034,0.646 -0.052,1.295 -0.052,1.949 0,20.326 16.478,36.804 36.805,36.804 20.326,0 36.804,-16.478 36.804,-36.804 0,-20.326 -16.478,-36.805 -36.804,-36.805 -12.349,0 -23.269,6.088 -29.945,15.42 -0.882,-3.777 -2.99,-7.296 -6.27,-9.888 C 69.671,5.351 58.502,6.66 52.421,14.355 l -48.596,61.5 c -3.509,4.441 -4.691,10.289 -3.182,15.744 1.509,5.456 5.528,9.865 10.821,11.871 l 51.442,19.499 c 0.786,-5.773 4.983,-10.207 10.2,-11.623 22.218,-6.031 25.384,-6.89 46.902,-12.73 6.961,-1.889 14.96,1.671 17.324,10.382 l 12.974,47.8 10.11,1.08 V 133.25 c 0,-1.973 1.597,-3.574 3.569,-3.579 1.973,-0.005 3.579,1.587 3.589,3.56 v 0.002 c 0.03,5.991 0.202,40.257 0.202,40.257 l -45.133,-4.821 c -9.755,-1.043 -18.502,6.021 -19.544,15.772 -1.041,9.752 6.02,18.502 15.772,19.544 l 64.877,6.93 c 5.014,0.536 10.034,-1.086 13.79,-4.481 3.75,-3.388 5.879,-8.213 5.854,-13.267 z"
     inkscape:connector-curvature="0" /></g>
<g
   id="g7"
   transform="translate(-1.017509e-4,-5.899)">
</g>
<g
   id="g9"
   transform="translate(-1.017509e-4,-5.899)">
</g>
<g
   id="g11"
   transform="translate(-1.017509e-4,-5.899)">
</g>
<g
   id="g13"
   transform="translate(-1.017509e-4,-5.899)">
</g>
<g
   id="g15"
   transform="translate(-1.017509e-4,-5.899)">
</g>
<g
   id="g17"
   transform="translate(-1.017509e-4,-5.899)">
</g>
<g
   id="g19"
   transform="translate(-1.017509e-4,-5.899)">
</g>
<g
   id="g21"
   transform="translate(-1.017509e-4,-5.899)">
</g>
<g
   id="g23"
   transform="translate(-1.017509e-4,-5.899)">
</g>
<g
   id="g25"
   transform="translate(-1.017509e-4,-5.899)">
</g>
<g
   id="g27"
   transform="translate(-1.017509e-4,-5.899)">
</g>
<g
   id="g29"
   transform="translate(-1.017509e-4,-5.899)">
</g>
<g
   id="g31"
   transform="translate(-1.017509e-4,-5.899)">
</g>
<g
   id="g33"
   transform="translate(-1.017509e-4,-5.899)">
</g>
<g
   id="g35"
   transform="translate(-1.017509e-4,-5.899)">
</g>
<text
   xml:space="preserve"
   style="font-style:normal;font-weight:normal;font-size:40px;line-height:1.25;font-family:sans-serif;letter-spacing:0px;word-spacing:0px;fill:#000000;fill-opacity:1;stroke:none"
   x="471.36795"
   y="98.130447"
   id="text3758"><tspan
     sodipodi:role="line"
     id="tspan3756"
     x="471.36795"
     y="98.130447"
     style="font-style:normal;font-variant:normal;font-weight:bold;font-stretch:normal;font-size:85.33333588px;font-family:sans-serif;-inkscape-font-specification:'sans-serif Bold';text-align:center;text-anchor:middle">SOLUCIÓN</tspan><tspan
     sodipodi:role="line"
     x="471.36795"
     y="204.79712"
     style="font-style:normal;font-variant:normal;font-weight:bold;font-stretch:normal;font-size:85.33333588px;font-family:sans-serif;-inkscape-font-specification:'sans-serif Bold';text-align:center;text-anchor:middle"
     id="tspan3764">AL</tspan><tspan
     sodipodi:role="line"
     x="471.36795"
     y="311.46378"
     style="font-style:normal;font-variant:normal;font-weight:bold;font-stretch:normal;font-size:85.33333588px;font-family:sans-serif;-inkscape-font-specification:'sans-serif Bold'"
     id="tspan3766"><tspan
   style="font-size:85.33333588px;text-align:center;text-anchor:middle"
   id="tspan3768">PR</tspan>OBLEMA</tspan></text>


<text
   xml:space="preserve"
   style="font-style:normal;font-weight:normal;font-size:40px;line-height:1.25;font-family:sans-serif;letter-spacing:0px;word-spacing:0px;fill:#000000;fill-opacity:1;stroke:none"
   x="389.04367"
   y="425.64969"
   id="text3762"><tspan
     sodipodi:role="line"
     id="tspan3760"
     x="389.04367"
     y="425.64969"
     style="font-style:italic;font-variant:normal;font-weight:bold;font-stretch:normal;font-size:96px;font-family:sans-serif;-inkscape-font-specification:'sans-serif Bold Italic'">n</tspan></text>


</svg>