<?xml version="1.0" encoding="UTF-8" standalone="no"?>
<svg
   xmlns:dc="http://purl.org/dc/elements/1.1/"
   xmlns:cc="http://creativecommons.org/ns#"
   xmlns:rdf="http://www.w3.org/1999/02/22-rdf-syntax-ns#"
   xmlns:svg="http://www.w3.org/2000/svg"
   xmlns="http://www.w3.org/2000/svg"
   xmlns:sodipodi="http://sodipodi.sourceforge.net/DTD/sodipodi-0.dtd"
   xmlns:inkscape="http://www.inkscape.org/namespaces/inkscape"
   width="177.21466"
   height="156.39221"
   viewBox="0 0 166.13943 146.61829"
   id="svg2"
   version="1.1"
   inkscape:version="0.92.3 (2405546, 2018-03-11)"
   sodipodi:docname="Nota Fa#.svg">
  <metadata
     id="metadata20">
    <rdf:RDF>
      <cc:Work
         rdf:about="">
        <dc:format>image/svg+xml</dc:format>
        <dc:type
           rdf:resource="http://purl.org/dc/dcmitype/StillImage" />
        <dc:title></dc:title>
      </cc:Work>
    </rdf:RDF>
  </metadata>
  <defs
     id="defs18" />
  <sodipodi:namedview
     pagecolor="#ffffff"
     bordercolor="#666666"
     borderopacity="1"
     objecttolerance="10"
     gridtolerance="10"
     guidetolerance="10"
     inkscape:pageopacity="0"
     inkscape:pageshadow="2"
     inkscape:window-width="1280"
     inkscape:window-height="776"
     id="namedview16"
     showgrid="false"
     fit-margin-top="0"
     fit-margin-left="0"
     fit-margin-right="0"
     fit-margin-bottom="0"
     inkscape:zoom="2.6306498"
     inkscape:cx="92.88354"
     inkscape:cy="72.992005"
     inkscape:window-x="0"
     inkscape:window-y="1"
     inkscape:window-maximized="1"
     inkscape:current-layer="svg2" />
  <path
     d="M 81.460898,143.75489 C 78.77878,139.32616 74.620886,134.98978 66.741913,128.40562 62.473795,124.83945 59.877409,122.8589 45.095147,111.89906 33.509381,103.30685 27.728747,98.540162 21.029577,92.052285 14.334491,85.564408 10.399088,80.396899 7.0229672,73.659488 4.8674756,69.356505 3.3855759,65.210708 2.4629604,60.903795 1.2933615,55.431737 1.1341489,53.5789 1.1402723,45.521122 1.1483993,34.948358 1.511768,33.189833 5.1287469,26.136084 7.8169885,20.897843 9.8581735,18.139213 14.109962,13.995387 18.239277,9.9733779 20.919354,8.1460779 26.716318,5.3953179 c 6.439939,-3.05728 11.097922,-3.85893 20.693532,-3.56224 7.45645,0.23185 10.185514,0.94312 16.096785,4.20867 9.30372,5.1380391 16.523391,13.3863951 18.521711,21.1612401 0.326589,1.271247 0.663386,2.312608 0.749115,2.312608 0.08573,0 0.838926,-1.487378 1.673772,-3.304848 2.841329,-6.179395 5.48058,-9.949915 9.673174,-13.828491 12.837013,-11.87936915 33.075353,-14.0269391 49.439533,-5.2500291 6.68283,3.5838591 12.12055,8.8024451 16.33356,15.6754301 3.31692,5.409184 5.01315,12.594576 5.303,22.46393 0.41844,14.298086 -2.30654,24.206736 -9.55887,34.765746 -2.87807,4.190988 -5.00703,6.729551 -8.99959,10.72995 -6.44197,6.458405 -12.25119,11.205446 -25.96591,21.216266 -8.65461,6.31694 -13.78411,10.37825 -21.207906,16.79932 -5.950048,5.14393 -15.168039,14.09964 -16.055954,15.59684 -0.387826,0.65429 -0.738909,1.18872 -0.779732,1.18872 -0.04083,0 -0.567451,-0.8154 -1.17164,-1.81354 z"
     id="path8"
     inkscape:connector-curvature="0"
     style="fill:#ff0000;stroke:#000000;stroke-width:2.87086558;stroke-miterlimit:4;stroke-dasharray:none"
     inkscape:export-filename="/home/obijuan/develop/FPGAwars/Icestudio-block-icons/Hearts/png/Heart_1Hz.png"
     inkscape:export-xdpi="90"
     inkscape:export-ydpi="90" />
  <text
     y="136.18301"
     x="124.11331"
     style="font-weight:400;font-size:53.91407013px;line-height:0%;font-family:sans-serif;letter-spacing:0;word-spacing:0;fill:#0000ff"
     font-weight="400"
     font-size="27.48"
     letter-spacing="0"
     word-spacing="0"
     id="text4204"
     transform="scale(0.99852717,1.001475)"
     inkscape:export-filename="/home/obijuan/develop/FPGAwars/Icestudio-block-icons/Hearts/png/Heart_1Hz.png"
     inkscape:export-xdpi="90"
     inkscape:export-ydpi="90">
    <tspan
       style="font-weight:700;font-size:30.808321px;-inkscape-font-specification:'sans-serif Bold';fill:#0000ff"
       y="136.18301"
       x="124.11331"
       font-weight="700"
       font-size="15.703"
       id="tspan4206">Hz</tspan>
  </text>
  <flowRoot
     xml:space="preserve"
     id="flowRoot9"
     style="font-style:normal;font-weight:bold;font-size:40px;line-height:125%;font-family:sans-serif;letter-spacing:0px;word-spacing:0px;fill:#000000;fill-opacity:1;stroke:none;stroke-width:1px;stroke-linecap:butt;stroke-linejoin:miter;stroke-opacity:1;-inkscape-font-specification:'sans-serif Bold';font-stretch:normal;font-variant:normal;"
     transform="scale(0.93750383)"><flowRegion
       id="flowRegion11"
       style="-inkscape-font-specification:'sans-serif Bold';font-family:sans-serif;font-weight:bold;font-style:normal;font-stretch:normal;font-variant:normal;"><rect
         id="rect13"
         width="65.002953"
         height="43.715435"
         x="49.41745"
         y="47.673824"
         style="-inkscape-font-specification:'sans-serif Bold';font-family:sans-serif;font-weight:bold;font-style:normal;font-stretch:normal;font-variant:normal;" /></flowRegion><flowPara
       id="flowPara15">DDDO</flowPara></flowRoot>  <flowRoot
     xml:space="preserve"
     id="flowRoot183"
     style="font-style:normal;font-weight:normal;font-size:40px;line-height:125%;font-family:sans-serif;letter-spacing:0px;word-spacing:0px;fill:#000000;fill-opacity:1;stroke:none;stroke-width:1px;stroke-linecap:butt;stroke-linejoin:miter;stroke-opacity:1"
     transform="scale(0.93750383)"><flowRegion
       id="flowRegion185"><rect
         id="rect187"
         width="49.41745"
         height="44.09557"
         x="61.581741"
         y="50.714901" /></flowRegion><flowPara
       id="flowPara189">MI</flowPara></flowRoot>  <text
     xml:space="preserve"
     style="font-style:normal;font-weight:normal;font-size:67.36166382px;line-height:125%;font-family:sans-serif;letter-spacing:0px;word-spacing:0px;fill:#000000;fill-opacity:1;stroke:none;stroke-width:1.68404138px;stroke-linecap:butt;stroke-linejoin:miter;stroke-opacity:1"
     x="43.11639"
     y="79.445923"
     id="text193"
     transform="scale(0.79783803,1.2533872)"><tspan
       sodipodi:role="line"
       id="tspan191"
       x="43.11639"
       y="79.445923"
       style="stroke-width:1.68404138px">FA</tspan></text>
  <text
     xml:space="preserve"
     style="font-style:normal;font-weight:normal;font-size:76.99126434px;line-height:125%;font-family:sans-serif;letter-spacing:0px;word-spacing:0px;fill:#000000;fill-opacity:1;stroke:none;stroke-width:1.92478156px;stroke-linecap:butt;stroke-linejoin:miter;stroke-opacity:1"
     x="106.42731"
     y="89.983009"
     id="text291"
     transform="scale(0.92012258,1.0868117)"><tspan
       sodipodi:role="line"
       id="tspan289"
       x="106.42731"
       y="89.983009"
       style="stroke-width:1.92478156px">#</tspan></text>
</svg>
