<?xml version="1.0" encoding="UTF-8" standalone="no"?>
<svg
   xmlns:dc="http://purl.org/dc/elements/1.1/"
   xmlns:cc="http://creativecommons.org/ns#"
   xmlns:rdf="http://www.w3.org/1999/02/22-rdf-syntax-ns#"
   xmlns:svg="http://www.w3.org/2000/svg"
   xmlns="http://www.w3.org/2000/svg"
   xmlns:sodipodi="http://sodipodi.sourceforge.net/DTD/sodipodi-0.dtd"
   xmlns:inkscape="http://www.inkscape.org/namespaces/inkscape"
   width="177.21466"
   height="156.39221"
   viewBox="0 0 166.13943 146.61829"
   id="svg2"
   version="1.1"
   inkscape:version="0.92.3 (2405546, 2018-03-11)"
   sodipodi:docname="Nota Re#.svg">
  <metadata
     id="metadata20">
    <rdf:RDF>
      <cc:Work
         rdf:about="">
        <dc:format>image/svg+xml</dc:format>
        <dc:type
           rdf:resource="http://purl.org/dc/dcmitype/StillImage" />
        <dc:title></dc:title>
      </cc:Work>
    </rdf:RDF>
  </metadata>
  <defs
     id="defs18" />
  <sodipodi:namedview
     pagecolor="#ffffff"
     bordercolor="#666666"
     borderopacity="1"
     objecttolerance="10"
     gridtolerance="10"
     guidetolerance="10"
     inkscape:pageopacity="0"
     inkscape:pageshadow="2"
     inkscape:window-width="1280"
     inkscape:window-height="776"
     id="namedview16"
     showgrid="false"
     fit-margin-top="0"
     fit-margin-left="0"
     fit-margin-right="0"
     fit-margin-bottom="0"
     inkscape:zoom="2.6306498"
     inkscape:cx="159.2304"
     inkscape:cy="69.527956"
     inkscape:window-x="0"
     inkscape:window-y="1"
     inkscape:window-maximized="1"
     inkscape:current-layer="svg2" />
  <path
     d="M 82.030917,144.11127 C 79.353155,139.68254 75.202015,135.34616 67.335838,128.762 63.074652,125.19583 60.482482,123.21528 45.724228,112.25544 34.157279,103.66323 28.386032,98.896539 21.697743,92.408662 15.01353,85.920785 11.084518,80.753276 7.7138801,74.015865 5.5618892,69.712882 4.0823963,65.567085 3.1612795,61.260172 1.9935801,55.788114 1.8346261,53.935277 1.8407395,45.877499 1.8488534,35.304735 2.2116319,33.54621 5.8227363,26.492461 8.5066114,21.25422 10.544481,18.49559 14.789365,14.351764 c 4.12261,-4.022009 6.798334,-5.8493088 12.585883,-8.6000688 6.42948,-3.05728 11.079898,-3.85893 20.659924,-3.56224 7.44434,0.23185 10.168971,0.94312 16.070642,4.20867 9.28861,5.1380388 16.496555,13.3863948 18.49163,21.1612398 0.326059,1.271247 0.662308,2.312608 0.747898,2.312608 0.08559,0 0.837565,-1.487378 1.671053,-3.304848 2.836715,-6.179395 5.47168,-9.949915 9.657465,-13.828491 12.81617,-11.87936887 33.02163,-14.0269388 49.35924,-5.2500288 6.67198,3.5838598 12.10087,8.8024448 16.30704,15.6754298 3.31153,5.409184 5.005,12.594576 5.29438,22.46393 0.41776,14.298086 -2.3028,24.206736 -9.54335,34.765746 -2.87339,4.190988 -4.99889,6.729551 -8.98497,10.72995 -6.43151,6.458405 -12.23129,11.205449 -25.92374,21.216269 -8.64056,6.31694 -13.76172,10.37825 -21.17346,16.79932 -5.940387,5.14393 -15.143406,14.09964 -16.02988,15.59684 -0.387195,0.65429 -0.737709,1.18872 -0.778466,1.18872 -0.04076,0 -0.566528,-0.8154 -1.169737,-1.81354 z"
     id="path8"
     inkscape:connector-curvature="0"
     style="fill:#ff0000;stroke:#000000;stroke-width:2.86853337;stroke-miterlimit:4;stroke-dasharray:none"
     inkscape:export-filename="/home/obijuan/develop/FPGAwars/Icestudio-block-icons/Hearts/png/Heart_1Hz.png"
     inkscape:export-xdpi="90"
     inkscape:export-ydpi="90" />
  <text
     y="136.18301"
     x="124.11331"
     style="font-weight:400;font-size:53.91407013px;line-height:0%;font-family:sans-serif;letter-spacing:0;word-spacing:0;fill:#0000ff"
     font-weight="400"
     font-size="27.48"
     letter-spacing="0"
     word-spacing="0"
     id="text4204"
     transform="scale(0.99852717,1.001475)"
     inkscape:export-filename="/home/obijuan/develop/FPGAwars/Icestudio-block-icons/Hearts/png/Heart_1Hz.png"
     inkscape:export-xdpi="90"
     inkscape:export-ydpi="90">
    <tspan
       style="font-weight:700;font-size:30.808321px;-inkscape-font-specification:'sans-serif Bold';fill:#0000ff"
       y="136.18301"
       x="124.11331"
       font-weight="700"
       font-size="15.703"
       id="tspan4206">Hz</tspan>
  </text>
  <g
     inkscape:groupmode="layer"
     id="layer1"
     inkscape:label="Layer 1" />
  <flowRoot
     xml:space="preserve"
     id="flowRoot8781"
     style="font-style:normal;font-weight:normal;font-size:40px;line-height:125%;font-family:sans-serif;letter-spacing:0px;word-spacing:0px;fill:#000000;fill-opacity:1;stroke:none;stroke-width:1px;stroke-linecap:butt;stroke-linejoin:miter;stroke-opacity:1"
     transform="scale(0.93750383)"><flowRegion
       id="flowRegion8783"><rect
         id="rect8785"
         width="66.143356"
         height="41.814762"
         x="58.160534"
         y="48.053959" /></flowRegion><flowPara
       id="flowPara8787">RER</flowPara></flowRoot>  <text
     xml:space="preserve"
     style="font-style:normal;font-weight:normal;font-size:66.47080231px;line-height:125%;font-family:sans-serif;letter-spacing:0px;word-spacing:0px;fill:#000000;fill-opacity:1;stroke:none;stroke-width:1.66177034px;stroke-linecap:butt;stroke-linejoin:miter;stroke-opacity:1"
     x="36.687874"
     y="80.235199"
     id="text8791"
     transform="scale(0.83567259,1.1966409)"><tspan
       sodipodi:role="line"
       id="tspan8789"
       x="36.687874"
       y="80.235199"
       style="stroke-width:1.66177034px">RE</tspan></text>
  <text
     xml:space="preserve"
     style="font-style:normal;font-weight:normal;font-size:76.27197266px;line-height:125%;font-family:sans-serif;letter-spacing:0px;word-spacing:0px;fill:#000000;fill-opacity:1;stroke:none;stroke-width:1.9067992px;stroke-linecap:butt;stroke-linejoin:miter;stroke-opacity:1"
     x="104.07574"
     y="91.769218"
     id="text194"
     transform="scale(0.96295114,1.0384743)"><tspan
       sodipodi:role="line"
       id="tspan192"
       x="104.07574"
       y="91.769218"
       style="stroke-width:1.9067992px">#</tspan></text>
</svg>
