<?xml version="1.0" encoding="UTF-8" standalone="no"?>
<svg
   xmlns:dc="http://purl.org/dc/elements/1.1/"
   xmlns:cc="http://creativecommons.org/ns#"
   xmlns:rdf="http://www.w3.org/1999/02/22-rdf-syntax-ns#"
   xmlns:svg="http://www.w3.org/2000/svg"
   xmlns="http://www.w3.org/2000/svg"
   version="1.1"
   id="svg2"
   viewBox="0 0 744.09448819 1052.3622047"
   height="297mm"
   width="210mm">
  <defs
     id="defs4" />
  <metadata
     id="metadata7">
    <rdf:RDF>
      <cc:Work
         rdf:about="">
        <dc:format>image/svg+xml</dc:format>
        <dc:type
           rdf:resource="http://purl.org/dc/dcmitype/StillImage" />
        <dc:title></dc:title>
      </cc:Work>
    </rdf:RDF>
  </metadata>
  <g
     id="layer1">
    <path
       id="path3471"
       d="M 336.42856,739.34053 C 258.96334,730.054 188.55972,691.58608 139.3364,631.65109 104.48142,589.21118 82.949729,540.87803 74.198759,485.43363 c -1.92524,-12.19796 -2.20966,-17.92586 -2.20966,-44.5 0,-26.77654 0.2763,-32.25713 2.26331,-44.89318 C 94.893719,264.77513 195.3017,164.40724 326.65341,143.74023 c 12.45911,-1.96032 18.15527,-2.24962 44.77515,-2.27403 34.62994,-0.0318 45.26468,1.16759 74.02658,8.34846 114.11822,28.49144 201.61256,122.78473 221.87746,239.11897 3.49381,20.05686 4.37081,33.68189 3.81848,59.32372 -0.85748,39.8079 -6.63113,68.74167 -20.88786,104.67628 -14.38695,36.26283 -36.06282,69.25534 -64.6463,98.39714 -24.16578,24.63782 -48.21194,42.18212 -79.68836,58.1414 -31.97046,16.20976 -67.74241,26.63045 -104.5,30.44177 -13.4503,1.39463 -51.37391,1.06008 -65,-0.57341 z m 56.5,-35.95599 c 18.56216,-1.09433 42.23562,-5.95902 63,-12.94595 64.97334,-21.86265 120.63908,-70.51246 151.04177,-132.00496 19.13612,-38.70472 27.47232,-74.15155 27.51545,-117 0.0267,-26.54277 -1.87576,-42.12794 -8.17402,-66.96204 -8.57999,-33.8309 -26.57017,-69.62803 -49.52118,-98.53796 -8.54905,-10.7687 -29.29416,-31.49608 -40.36202,-40.32754 C 457.16278,172.357 349.69084,159.69403 258.83123,202.89797 175.84338,242.35888 119.31449,321.78187 109.4274,412.81009 c -1.44824,13.33364 -1.44824,42.91344 0,56.24708 11.85907,109.18379 91.34653,200.61734 197.50116,227.1834 17.68152,4.42494 32.13492,6.68898 48.85184,7.65234 12.87641,0.74204 16.86437,0.68746 37.14816,-0.50837 z m -49,-27.08663 c -42.26629,-4.40234 -75.95408,-15.01288 -106.11344,-33.42225 -51.57106,-31.47913 -88.07707,-88.86035 -98.89244,-155.44203 -0.90493,-5.57095 0.56813,-3.59897 4.48198,6 9.81033,24.06045 24.68661,48.78323 37.06604,61.59978 4.06389,4.20738 5.86597,5.67442 4.17678,3.40022 -6.63475,-8.93254 -16.33067,-24.75813 -21.48347,-35.06511 -15.79076,-31.58576 -22.15271,-57.98815 -22.15271,-91.93489 0,-26.21967 3.86869,-47.73219 12.96273,-72.08158 5.23785,-14.02436 16.67347,-36.41842 18.59724,-36.41842 0.39993,0 -0.80092,3.30733 -2.66857,7.34961 -18.62505,40.31147 -11.58883,88.70346 19.82466,136.34524 6.26486,9.50132 18.62385,25.52128 20.65969,26.7795 0.54443,0.33647 -0.8279,-2.54111 -3.04962,-6.39464 -10.1271,-17.5652 -21.01472,-46.63702 -24.78702,-66.18555 -11.81044,-61.20327 6.11667,-117.4615 53.47035,-167.79876 12.16302,-12.92937 40.58278,-36.25375 42.20141,-34.63513 0.28144,0.28145 -0.79448,1.51821 -2.39095,2.74835 -17.70846,13.64518 -31.38705,33.99129 -36.49983,54.29138 -2.90954,11.55223 -3.1289,30.77909 -0.49628,43.5 6.42802,31.06044 21.39381,60.96783 45.73885,91.40377 l 4.72229,5.90377 -3.98933,7.93439 c -30.74557,61.1499 -30.26589,118.39323 1.389,165.75807 14.75831,22.0827 37.09294,43.01807 61.62302,57.76236 l 10.60962,6.37712 0.62746,-10.31974 c 0.34511,-5.67586 0.68261,-16.95724 0.75,-25.06974 0.0674,-8.1125 0.42461,-14.75 0.7938,-14.75 0.36919,0 1.54144,0.7875 2.60499,1.75 1.37297,1.24252 3.61277,1.75 7.72375,1.75 4.11098,0 6.35078,-0.50748 7.72375,-1.75 1.06355,-0.9625 2.2358,-1.75 2.60499,-1.75 0.36919,0 0.67308,5.5125 0.67532,12.25 0.002,6.7375 0.29537,17.96188 0.65143,24.94307 l 0.64738,12.69306 3.95381,-2.01708 c 11.05722,-5.64097 25.77759,-16.22384 38.67079,-27.80148 27.24976,-24.4693 44.9485,-54.13102 51.65368,-86.56757 2.62257,-12.68675 2.6446,-40.13036 0.0434,-54 -3.51033,-18.71682 -10.93988,-40.21462 -20.4461,-59.16184 l -3.93261,-7.83816 9.42034,-12.5 c 20.8917,-27.72153 34.66264,-55.93195 40.51652,-83 2.95987,-13.6863 2.94213,-33.32967 -0.0411,-45.5 -4.92442,-20.08965 -18.72576,-40.59517 -36.54427,-54.2961 -1.59647,-1.22755 -2.65794,-2.47663 -2.35883,-2.77574 0.92995,-0.92996 23.76492,16.9021 34.03339,26.57703 12.44535,11.72596 23.80115,25.28115 33.92437,40.49481 40.4036,60.72047 41.51877,130.41446 3.2148,200.91209 l -4.39447,8.08791 3.61497,-4 c 11.17707,-12.36757 24.11031,-31.94204 32.41648,-49.0624 9.68197,-19.95609 15.95916,-44.67227 15.94605,-62.78697 -0.0119,-16.44875 -4.75297,-37.34765 -11.48756,-50.63772 -3.8793,-7.65544 -1.40737,-5.96645 3.27411,2.23709 12.32662,21.60043 20.78547,46.18769 24.90001,72.3767 2.10056,13.37005 2.3304,41.83249 0.44715,55.3733 -4.25619,30.60251 -16.69463,62.20074 -35.82157,91 l -8.30183,12.5 6.58326,-7 c 12.22958,-13.00375 27.40314,-38.47414 36.93545,-62 5.14988,-12.70998 5.40409,-11.12144 1.3602,8.5 -5.16368,25.05474 -16.06228,52.37773 -29.66219,74.36361 -34.55332,55.85957 -85.23002,87.82965 -157.22113,99.18506 -10.12687,1.59735 -60.21176,2.8872 -70.5,1.81561 z M 328.74954,603.3693 c -3.18944,-1.62202 -6.32543,-6.63039 -6.31586,-10.0868 0.003,-1.01688 1.11378,-3.64887 2.46879,-5.84887 1.96686,-3.19338 2.46996,-5.36116 2.49488,-10.75 l 0.0312,-6.75 6.5,0 6.5,0 0,6.40771 c 0,4.94775 0.59195,7.54868 2.59805,11.41534 3.09143,5.95859 2.69559,9.56338 -1.49054,13.57395 -3.51979,3.37217 -8.57846,4.17872 -12.78653,2.03867 z m 36.99284,-0.3859 c -1.7524,-1.06851 -3.6649,-2.83724 -4.25,-3.93052 -1.70118,-3.17869 -1.22386,-9.35779 0.93618,-12.11925 1.52471,-1.94923 1.96043,-4.09723 1.97776,-9.75 l 0.0222,-7.25 7,0 7,0 0,7.59227 c 0,6.07808 0.39888,8.09936 2,10.13486 3.73493,4.74819 1.70133,12.8246 -3.96727,15.75594 -3.91795,2.02606 -6.88199,1.90624 -10.71891,-0.4333 z m 37.44875,0.439 c -5.51418,-3.10106 -7.425,-11.10561 -3.76257,-15.76164 1.60112,-2.0355 2,-4.05678 2,-10.13486 l 0,-7.59227 7,0 7,0 0.0222,7.25 c 0.0173,5.65277 0.45305,7.80077 1.97776,9.75 3.00426,3.84072 2.6633,10.22615 -0.75,14.04597 -3.34027,3.73809 -9.2734,4.81268 -13.48743,2.4428 z M 298.42856,554.93363 c -1.93249,-1.93249 -2,-3.33333 -2,-41.5 0,-38.16667 0.0675,-39.56751 2,-41.5 1.11111,-1.11111 3.33333,-2 5,-2 2.65041,0 3,-0.34127 3,-2.92857 0,-6.09405 0.50374,-6.19412 29.53598,-5.86741 25.6458,0.2886 26.37861,0.35328 29.40888,2.59535 l 3.10772,2.29938 2.79448,-1.98985 c 8.83653,-6.29216 24.80416,-4.35802 28.35471,3.43459 1.57632,3.45964 4.83819,2.90203 6.10417,-1.04349 1.65258,-5.15035 2.36421,-5.5 11.19406,-5.5 8.98648,0 9.82897,0.44184 10.96398,5.75 l 0.69493,3.25 6.88159,0 c 11.64767,0 10.9595,-2.73234 10.9595,43.51425 l 0,39.13712 -2.31445,2.17432 -2.31445,2.17431 -70.68555,0 c -69.35222,0 -70.72328,-0.0377 -72.68555,-2 z m 72.77749,-6.5567 c 1.24574,-0.87255 2.22251,-1.0923 2.22251,-0.5 0,0.60782 2.23015,1.05757 5.25,1.05876 l 5.25,0.002 -0.5,-13.97842 c -0.62021,-17.33912 -1.19031,-18.24505 -11.86117,-18.848 -6.42611,-0.36311 -7.07242,-0.20318 -9.96951,2.46701 -1.70386,1.57042 -3.38778,4.0928 -3.74203,5.6053 -0.6386,2.7265 -0.60024,2.75 4.48905,2.75 4.59834,0 5.23541,-0.26894 6.11456,-2.58128 1.04477,-2.74794 2.68213,-2.82076 4.33967,-0.19302 1.44203,2.28609 -0.63065,4.41291 -5.12164,5.25542 -5.902,1.10722 -8.98579,3.19153 -10.20996,6.9008 -3.12408,9.46606 6.00339,17.47928 13.73852,12.06138 z m -2.62429,-6.6901 c -1.81652,-1.81652 -1.35352,-4.49948 1.06931,-6.1965 3.21381,-2.25104 3.77749,-1.96631 3.77749,1.90812 0,3.89024 -2.78278,6.3524 -4.8468,4.28838 z m 63.42279,4.95335 c 3.04303,-3.53773 4.00202,-8.73864 2.26934,-12.30737 -0.97206,-2.00214 -3.14877,-3.50232 -7.84533,-5.40698 -6.92387,-2.80794 -9.35414,-5.9922 -4.57332,-5.9922 1.62073,0 2.57332,0.55527 2.57332,1.5 0,1.13333 1.22222,1.5 5,1.5 4.26227,0 5,-0.28302 5,-1.91821 0,-5.30175 -4.12785,-8.08179 -12,-8.08179 -8.69822,0 -13,3.62485 -13,10.95432 0,4.02974 2.80814,6.96904 9.05848,9.48157 5.42061,2.17899 7.49554,4.98564 4.8806,6.60176 -1.77259,1.09552 -3.65349,0.16243 -4.24692,-2.10682 -0.40645,-1.55427 -1.40078,-1.93083 -5.09854,-1.93083 -4.40618,0 -4.59362,0.11878 -4.59362,2.91111 0,2.0469 0.94924,3.70984 3.19757,5.60168 2.93149,2.46669 3.77365,2.65802 10.12056,2.29939 6.03906,-0.34124 7.22111,-0.73776 9.25786,-3.10563 z M 331.433,539.40009 c 0.694,-5.24345 1.42864,-9.36671 1.63254,-9.16281 0.32905,0.32905 1.29015,5.40508 2.92463,15.44635 l 0.52902,3.25 6.2851,0 6.2851,0 3.18025,-15.25 c 1.74914,-8.3875 3.17545,-15.5875 3.16959,-16 -0.006,-0.4125 -2.44,-0.75 -5.40918,-0.75 l -5.39851,0 -0.712,7.08986 c -1.28903,12.83556 -2.01106,13.42308 -3.57644,2.91014 l -1.41454,-9.5 -5.63002,-0.29632 -5.63002,-0.29633 -0.5695,3.29633 c -0.31323,1.81297 -0.87321,5.54632 -1.24439,8.29632 -1.09712,8.12816 -2.09429,8.25872 -2.8497,0.37313 -1.16357,-12.14633 -1.00084,-11.87313 -7.07209,-11.87313 l -5.2789,0 2.85202,13.75 c 1.56861,7.5625 3.10147,14.7625 3.40636,16 0.50236,2.03902 1.14999,2.25 6.90661,2.25 l 6.35226,0 1.26181,-9.53354 z m 67.99556,-0.40976 c 0,-9.1415 0.17922,-10.06882 2.22251,-11.5 1.22237,-0.85618 3.24737,-1.5567 4.5,-1.5567 2.06632,0 2.27749,-0.4636 2.27749,-5 0,-4.66667 -0.16667,-5 -2.5,-5 -1.375,0 -3.4,0.9 -4.5,2 -1.55556,1.55556 -2,1.66667 -2,0.5 0,-1.15152 -1.27778,-1.5 -5.5,-1.5 l -5.5,0 0,16 0,16 5.5,0 5.5,0 0,-9.9433 z m -12.81764,-31.651 c 2.2814,-1.17976 3.27082,-1.29048 3.80521,-0.42582 0.39719,0.64267 2.24997,1.0226 4.11729,0.8443 l 3.39514,-0.32418 0.28275,-11.25 0.28275,-11.25 -7.53275,0 -7.53275,0 0,3.5 c 0,2.86751 0.37233,3.5 2.06037,3.5 1.76074,0 2.01523,0.53061 1.75,3.64872 -0.36786,4.32464 -2.83154,6.40852 -5.22655,4.42085 -2.13086,-1.76846 -2.31946,-23.68127 -0.22843,-26.54092 1.83015,-2.50288 4.42072,-1.34133 4.82249,2.16229 0.30952,2.69921 0.5372,2.80906 5.82212,2.80906 l 5.5,0 -0.30553,-3.5 c -0.42417,-4.85898 -3.14509,-8.24192 -8.01182,-9.96116 -3.62774,-1.28155 -4.83466,-1.28155 -9.81839,0 -7.59568,1.9532 -9.09668,4.15951 -10.46867,15.38779 -1.36668,11.18481 -0.46356,20.5816 2.31795,24.11771 3.5878,4.56116 9.49731,5.69079 14.96882,2.86136 z m -64.18236,-8.4057 0,-9 6.5,0 6.5,0 0,-4 0,-4 -6.5,0 -6.5,0 0,-4 0,-4 7,0 7,0 0,-4.5 0,-4.5 -13,0 -13,0 0,20.83333 c 0,11.45834 0.3,21.13334 0.66667,21.5 0.36666,0.36667 3.06666,0.66667 6,0.66667 l 5.33333,0 0,-9 z m 27,1.11522 0,-7.88477 5.69651,-0.71174 c 4.64369,-0.58019 6.3284,-1.34362 9.11551,-4.13073 3.31356,-3.31356 3.40621,-3.61978 3.00442,-9.92983 -0.34665,-5.44404 -0.86042,-6.95711 -3.13559,-9.23449 -2.59646,-2.59898 -3.24653,-2.73904 -14.20093,-3.05971 l -11.47992,-0.33606 0,21.58606 0,21.58605 5.5,0 5.5,0 0,-7.88478 z m 0.19521,-21.85623 c 0.36307,-5.64748 2.71021,-6.85917 5.38351,-2.77919 2.30272,3.5144 0.64501,7.5202 -3.11207,7.5202 -2.44891,0 -2.56117,-0.23432 -2.27144,-4.74101 z m 62.23881,26.24101 c 0.63371,-3.37794 0.81196,-3.5 5.11129,-3.5 3.72471,0 4.45469,0.31433 4.45469,1.91821 0,4.30032 1.01601,5.08179 6.60699,5.08179 4.19693,0 5.39301,-0.34266 5.39301,-1.545 0,-1.28831 -5.40942,-23.72302 -9.10211,-37.74954 l -0.99896,-3.79454 -6.64046,0.29454 -6.64045,0.29454 -4.63222,18.5 c -2.54772,10.175 -4.94535,19.7375 -5.32806,21.25 l -0.69584,2.75 5.90776,0 5.90776,0 0.6566,-3.5 z m 3.04298,-18.16218 c 1.10402,-8.83631 2.07054,-10.59996 2.89178,-5.27678 0.37666,2.44143 0.94785,5.90146 1.26932,7.68896 0.5422,3.01491 0.38726,3.25 -2.14203,3.25 l -2.72652,0 0.70745,-5.66218 z m -87.477,-35.74553 c 0,-4.94775 -0.59195,-7.54868 -2.59805,-11.41534 -3.1327,-6.03815 -2.69476,-9.56418 1.7123,-13.78641 2.38594,-2.28588 3.93095,-2.89054 7.38575,-2.89054 3.4548,0 4.99981,0.60466 7.38575,2.89054 4.40706,4.22223 4.845,7.74826 1.7123,13.78641 -2.0061,3.86666 -2.59805,6.46759 -2.59805,11.41534 l 0,6.40771 -6.5,0 -6.5,0 0,-6.40771 z m 36.97776,-0.84229 c -0.0173,-5.65277 -0.45305,-7.80077 -1.97776,-9.75 -4.69243,-5.99893 -0.88331,-16.18086 6.57695,-17.58041 9.59609,-1.80024 17.23302,9.4671 11.42305,16.85328 -1.60112,2.0355 -2,4.05678 -2,10.13486 l 0,7.59227 -7,0 -7,0 -0.0222,-7.25 z m 37.02224,-0.34227 c 0,-6.07808 -0.39888,-8.09936 -2,-10.13486 -5.80997,-7.38618 1.82696,-18.65352 11.42305,-16.85328 7.46026,1.39955 11.26938,11.58148 6.57695,17.58041 -1.52471,1.94923 -1.96043,4.09723 -1.97776,9.75 l -0.0222,7.25 -7,0 -7,0 0,-7.59227 z m -35.96035,-32.90773 c 0.0205,-1.65 0.88081,-34.275 1.9117,-72.5 1.0309,-38.225 1.57607,-69.77799 1.2115,-70.11776 -0.36457,-0.33977 -2.05935,-0.87782 -3.76618,-1.19567 -3.07684,-0.57297 -3.14405,-0.493 -7.87341,9.36776 l -4.77008,9.94567 -6.59514,0 -6.59515,0 -5.21834,-5.15352 -5.21835,-5.15352 3.05486,-6.05163 3.05485,-6.05163 -1.63498,-5.18675 c -1.51349,-4.80134 -1.91237,-5.23448 -5.36796,-5.82905 -10.11531,-1.74044 -9.23297,-0.87046 -9.23297,-9.1037 l 0,-7.37089 6.09554,-0.68963 6.09554,-0.68963 1.90431,-4.61002 c 1.04738,-2.53552 2.36576,-5.40963 2.92974,-6.38693 0.81442,-1.41128 0.30005,-2.72687 -2.49986,-6.3938 -1.9389,-2.5393 -3.52527,-5.01225 -3.52527,-5.49545 0,-1.54896 8.2003,-9.83385 9.73346,-9.83385 0.8133,0 3.27535,1.42294 5.47121,3.1621 l 3.99247,3.1621 5.15143,-1.80955 c 8.39965,-2.95056 8.3882,-2.93864 9.15395,-9.53635 l 0.70319,-6.05872 7.64714,0.29021 7.64715,0.29021 0.83731,6.25 c 0.48122,3.59199 1.33178,6.25415 2,6.25977 0.63948,0.005 3.44894,1.07434 6.24325,2.37549 l 5.08056,2.36573 4.41944,-3.35045 c 2.43069,-1.84275 4.88636,-3.36172 5.45703,-3.3755 0.57068,-0.0138 3.22095,2.19165 5.8895,4.90094 l 4.85192,4.92598 -3.59801,4.90146 -3.598,4.90146 2.40068,5.92256 c 2.69337,6.64467 3.03295,6.91882 10.01632,8.08651 l 5,0.83605 0.29202,7.16132 c 0.32707,8.02091 1.19606,7.15625 -8.94146,8.89691 -3.15207,0.54122 -3.86757,1.1978 -5.25,4.81763 -2.06737,5.41332 -2.06709,5.41658 1.05513,12.61581 l 2.65568,6.1235 -4.86809,4.94242 -4.8681,4.94241 -6.85585,0 -6.85585,0 -4.54063,-9.75 c -2.49735,-5.3625 -4.62943,-9.8503 -4.73797,-9.9729 -0.10854,-0.12259 -1.88275,0.24247 -3.9427,0.81125 l -3.74536,1.03415 0.56814,13.18875 c 0.31247,7.25381 1.00403,32.08875 1.53678,55.18875 0.53276,23.1 1.24821,49.8916 1.58989,59.53688 l 0.62125,17.53689 -6.10529,-0.0369 -6.1053,-0.0369 0.0374,-3 z M 343.1501,251.10611 c 3.87018,-8.15514 8.55359,-16.55519 10.40757,-18.6668 9.20726,-10.4866 27.01818,-10.34241 35.94548,0.29102 1.87244,2.23028 6.35781,10.42958 9.96748,18.22066 3.60968,7.79107 6.94925,14.23693 7.42127,14.32412 0.47202,0.0872 1.3875,-1.41648 2.0344,-3.34148 1.22072,-3.63256 2.60022,-4.41246 9.75226,-5.51338 l 3.75,-0.57725 0,-6.3565 0,-6.3565 -5.84473,-0.67835 -5.84473,-0.67835 -2.65527,-6.79817 c -1.4604,-3.73899 -2.65527,-7.11685 -2.65527,-7.50635 0,-0.38951 1.43364,-2.7045 3.18587,-5.14444 l 3.18586,-4.43624 -4.35547,-4.4379 -4.35547,-4.4379 -4.90172,3.59819 -4.90173,3.5982 -4.67867,-2.08596 c -2.57327,-1.14727 -5.6599,-2.35456 -6.85917,-2.68286 -2.15882,-0.59096 -2.39998,-1.21208 -3.80611,-9.80256 l -0.62139,-3.79631 -6.196,0.29631 -6.196,0.29632 -0.87911,6.174 c -0.77707,5.45741 -1.17547,6.24838 -3.43259,6.81488 -1.40441,0.35248 -4.35584,1.51168 -6.55872,2.576 -2.20288,1.06432 -4.306,1.93512 -4.67361,1.93512 -0.3676,0 -2.79872,-1.62664 -5.40248,-3.61476 l -4.73411,-3.61477 -3.90969,3.81772 c -2.15033,2.09974 -3.90969,4.44031 -3.90969,5.20128 0,0.76097 1.41716,3.35693 3.14924,5.76881 l 3.14924,4.38524 -2.64924,5.90328 c -1.45708,3.24681 -2.64924,6.36534 -2.64924,6.93006 0,0.56472 -2.70259,1.34044 -6.00576,1.72381 -6.70741,0.77848 -7.41697,1.72555 -6.81383,9.09465 0.34068,4.16234 0.19263,4.07785 10.53236,6.0105 1.56773,0.29303 2.56127,1.57679 3.40828,4.40389 0.65754,2.19466 1.50339,3.99029 1.87966,3.99029 0.37628,0 3.85065,-6.67238 7.72083,-14.82752 z m 26.63621,-1.32738 c 0.36619,-7.23519 0.44992,-13.37076 0.18609,-13.6346 -0.97652,-0.97651 -6.66202,2.14124 -9.0243,4.94864 -3.50284,4.16289 -4.17393,9.06328 -1.92436,14.05193 1.69042,3.74868 6.34674,7.77614 9.0008,7.78519 0.70568,0.002 1.33308,-4.68101 1.76177,-13.15116 z m 10.09351,10.06355 c 7.95079,-6.98089 6.08214,-18.95979 -3.5821,-22.96285 -1.61331,-0.66825 -3.13327,-1.01503 -3.37768,-0.77061 -0.24441,0.24441 -0.16047,6.37998 0.18653,13.6346 0.70558,14.75087 0.99071,15.176 6.77325,10.09886 z"
       style="fill:#000000" />
  </g>
</svg>
