<?xml version="1.0" encoding="UTF-8" standalone="no"?>
<svg
   xmlns:dc="http://purl.org/dc/elements/1.1/"
   xmlns:cc="http://creativecommons.org/ns#"
   xmlns:rdf="http://www.w3.org/1999/02/22-rdf-syntax-ns#"
   xmlns:svg="http://www.w3.org/2000/svg"
   xmlns="http://www.w3.org/2000/svg"
   xmlns:sodipodi="http://sodipodi.sourceforge.net/DTD/sodipodi-0.dtd"
   xmlns:inkscape="http://www.inkscape.org/namespaces/inkscape"
   width="177.21466"
   height="156.39221"
   viewBox="0 0 166.13943 146.61829"
   id="svg2"
   version="1.1"
   inkscape:version="0.92.3 (2405546, 2018-03-11)"
   sodipodi:docname="Nota Fa.svg">
  <metadata
     id="metadata20">
    <rdf:RDF>
      <cc:Work
         rdf:about="">
        <dc:format>image/svg+xml</dc:format>
        <dc:type
           rdf:resource="http://purl.org/dc/dcmitype/StillImage" />
        <dc:title></dc:title>
      </cc:Work>
    </rdf:RDF>
  </metadata>
  <defs
     id="defs18" />
  <sodipodi:namedview
     pagecolor="#ffffff"
     bordercolor="#666666"
     borderopacity="1"
     objecttolerance="10"
     gridtolerance="10"
     guidetolerance="10"
     inkscape:pageopacity="0"
     inkscape:pageshadow="2"
     inkscape:window-width="1274"
     inkscape:window-height="772"
     id="namedview16"
     showgrid="false"
     fit-margin-top="0"
     fit-margin-left="0"
     fit-margin-right="0"
     fit-margin-bottom="0"
     inkscape:zoom="2.6306498"
     inkscape:cx="92.88354"
     inkscape:cy="72.992005"
     inkscape:window-x="0"
     inkscape:window-y="1"
     inkscape:window-maximized="0"
     inkscape:current-layer="svg2" />
  <path
     d="M 80.989613,143.75489 C 78.415422,139.32616 74.42484,134.98978 66.862911,128.40562 62.76654,124.83945 60.27463,122.8589 46.087197,111.89906 34.967635,103.30685 29.419609,98.540162 22.99001,92.052285 16.56433,85.564408 12.787284,80.396899 9.5470169,73.659488 7.4782609,69.356505 6.0559919,65.210708 5.1705019,60.903795 4.0479669,55.431737 3.8951609,53.5789 3.9010379,45.521122 3.9088379,34.948358 4.2575849,33.189833 7.7290189,26.136084 10.309087,20.897843 12.268136,18.139213 16.348835,13.995387 20.31199,9.9733779 22.884222,8.1460779 28.44792,5.3953179 c 6.1808,-3.05728 10.651349,-3.85893 19.860838,-3.56224 7.156407,0.23185 9.775655,0.94312 15.449061,4.20867 8.929344,5.1380391 15.8585,13.3863951 17.776409,21.1612401 0.313448,1.271247 0.636691,2.312608 0.718971,2.312608 0.08228,0 0.805169,-1.487378 1.60642,-3.304848 2.726996,-6.179395 5.260046,-9.949915 9.283932,-13.828491 12.320459,-11.87936915 31.744419,-14.0269391 47.450119,-5.2500291 6.41392,3.5838591 11.63283,8.8024451 15.67631,15.6754301 3.18345,5.409184 4.81142,12.594576 5.08961,22.46393 0.4016,14.298086 -2.21373,24.206736 -9.17423,34.765746 -2.76226,4.190988 -4.80555,6.729551 -8.63745,10.72995 -6.18275,6.458405 -11.75821,11.205446 -24.92106,21.216266 -8.30636,6.31694 -13.22945,10.37825 -20.354509,16.79932 -5.710627,5.14393 -14.557691,14.09964 -15.409878,15.59684 -0.372219,0.65429 -0.709175,1.18872 -0.748356,1.18872 -0.03918,0 -0.544616,-0.8154 -1.124494,-1.81354 z"
     id="path8"
     inkscape:connector-curvature="0"
     style="fill:#ff0000;stroke:#000000;stroke-width:2.81251168;stroke-miterlimit:4;stroke-dasharray:none"
     inkscape:export-filename="/home/obijuan/develop/FPGAwars/Icestudio-block-icons/Hearts/png/Heart_1Hz.png"
     inkscape:export-xdpi="90"
     inkscape:export-ydpi="90" />
  <text
     y="136.18301"
     x="124.11331"
     style="font-weight:400;font-size:53.91407013px;line-height:0%;font-family:sans-serif;letter-spacing:0;word-spacing:0;fill:#0000ff"
     font-weight="400"
     font-size="27.48"
     letter-spacing="0"
     word-spacing="0"
     id="text4204"
     transform="scale(0.99852717,1.001475)"
     inkscape:export-filename="/home/obijuan/develop/FPGAwars/Icestudio-block-icons/Hearts/png/Heart_1Hz.png"
     inkscape:export-xdpi="90"
     inkscape:export-ydpi="90">
    <tspan
       style="font-weight:700;font-size:30.808321px;-inkscape-font-specification:'sans-serif Bold';fill:#0000ff"
       y="136.18301"
       x="124.11331"
       font-weight="700"
       font-size="15.703"
       id="tspan4206">Hz</tspan>
  </text>
  <flowRoot
     xml:space="preserve"
     id="flowRoot9"
     style="font-style:normal;font-weight:bold;font-size:40px;line-height:125%;font-family:sans-serif;letter-spacing:0px;word-spacing:0px;fill:#000000;fill-opacity:1;stroke:none;stroke-width:1px;stroke-linecap:butt;stroke-linejoin:miter;stroke-opacity:1;-inkscape-font-specification:'sans-serif Bold';font-stretch:normal;font-variant:normal;"
     transform="scale(0.93750383)"><flowRegion
       id="flowRegion11"
       style="-inkscape-font-specification:'sans-serif Bold';font-family:sans-serif;font-weight:bold;font-style:normal;font-stretch:normal;font-variant:normal;"><rect
         id="rect13"
         width="65.002953"
         height="43.715435"
         x="49.41745"
         y="47.673824"
         style="-inkscape-font-specification:'sans-serif Bold';font-family:sans-serif;font-weight:bold;font-style:normal;font-stretch:normal;font-variant:normal;" /></flowRegion><flowPara
       id="flowPara15">DDDO</flowPara></flowRoot>  <flowRoot
     xml:space="preserve"
     id="flowRoot183"
     style="font-style:normal;font-weight:normal;font-size:40px;line-height:125%;font-family:sans-serif;letter-spacing:0px;word-spacing:0px;fill:#000000;fill-opacity:1;stroke:none;stroke-width:1px;stroke-linecap:butt;stroke-linejoin:miter;stroke-opacity:1"
     transform="scale(0.93750383)"><flowRegion
       id="flowRegion185"><rect
         id="rect187"
         width="49.41745"
         height="44.09557"
         x="61.581741"
         y="50.714901" /></flowRegion><flowPara
       id="flowPara189">MI</flowPara></flowRoot>  <text
     xml:space="preserve"
     style="font-style:normal;font-weight:normal;font-size:81.60036469px;line-height:125%;font-family:sans-serif;letter-spacing:0px;word-spacing:0px;fill:#000000;fill-opacity:1;stroke:none;stroke-width:2.04000902px;stroke-linecap:butt;stroke-linejoin:miter;stroke-opacity:1"
     x="38.92944"
     y="94.553055"
     id="text193"
     transform="scale(0.91358559,1.0945882)"><tspan
       sodipodi:role="line"
       id="tspan191"
       x="38.92944"
       y="94.553055"
       style="stroke-width:2.04000902px">FA</tspan></text>
</svg>
