<?xml version="1.0" encoding="UTF-8" standalone="no"?>
<svg
   xmlns:dc="http://purl.org/dc/elements/1.1/"
   xmlns:cc="http://creativecommons.org/ns#"
   xmlns:rdf="http://www.w3.org/1999/02/22-rdf-syntax-ns#"
   xmlns:svg="http://www.w3.org/2000/svg"
   xmlns="http://www.w3.org/2000/svg"
   xmlns:sodipodi="http://sodipodi.sourceforge.net/DTD/sodipodi-0.dtd"
   xmlns:inkscape="http://www.inkscape.org/namespaces/inkscape"
   width="27.8761601772mm"
   height="26.4120585621mm"
   viewBox="0 0 27.8761601772 26.4120585621"
   version="1.1"
   id="svg2"
   inkscape:version="0.91 r13725"
   sodipodi:docname="Cadete.svg">
  <metadata
     id="metadata14">
    <rdf:RDF>
      <cc:Work
         rdf:about="">
        <dc:format>image/svg+xml</dc:format>
        <dc:type
           rdf:resource="http://purl.org/dc/dcmitype/StillImage" />
      </cc:Work>
    </rdf:RDF>
  </metadata>
  <defs
     id="defs12" />
  <sodipodi:namedview
     pagecolor="#ffffff"
     bordercolor="#666666"
     borderopacity="1"
     objecttolerance="10"
     gridtolerance="10"
     guidetolerance="10"
     inkscape:pageopacity="0"
     inkscape:pageshadow="2"
     inkscape:window-width="1869"
     inkscape:window-height="1056"
     id="namedview10"
     showgrid="false"
     inkscape:zoom="7.1325687"
     inkscape:cx="42.881904"
     inkscape:cy="41.02581"
     inkscape:window-x="51"
     inkscape:window-y="24"
     inkscape:window-maximized="1"
     inkscape:current-layer="Sketch" />
  <g
     id="Sketch"
     transform="translate(2.602864,26.138763) scale(1,-1)">
    <path
       id="Sketch_w0000"
       d="M 0.0 0.0 L 25.0 0.0 L 25.0 5.0 L 5.0 5.0 L 5.0 20.0 L 25.0 20.0 L 25.0 25.0 L 4.0 25.0 A 4.0 4.0 0 0 1 -6.7768013423e-13 18.0717967697 L 0.0 0.0 "
       stroke="#000000"
       stroke-width="0.35 px"
       style="stroke-width:0.35;stroke-miterlimit:4;stroke-dasharray:none;fill:#ffff00;fill-rule:evenodd;fill-opacity:1" />
    <path
       style="fill:#ffffff;stroke:#000000;stroke-width:0.34999999;stroke-miterlimit:4;stroke-dasharray:none;fill-opacity:1"
       d="m 4,21.535898 a 2,2 0 0 1 -2,2 2,2 0 0 1 -2,-2 2,2 0 0 1 2,-2 2,2 0 0 1 2,2 z"
       id="circle6" />
    <title
       id="title8">SBase-cadete</title>
  </g>
</svg>
